<svg width="1200" height="500"><g transform="translate(60,20)"><g class="x axis" transform="translate (0, 430)"><g class="tick" transform="translate(9,0)" style="opacity: 1;"><line y2="6" x2="0"></line><text dy=".15em" y="9" x="0" dx="-.8em" transform="rotate(-65)" style="text-anchor: end; font-size: 0.45em;">JAN02</text></g><g class="tick" transform="translate(16,0)" style="opacity: 1;"><line y2="6" x2="0"></line><text dy=".15em" y="9" x="0" dx="-.8em" transform="rotate(-65)" style="text-anchor: end; font-size: 0.45em;">FEB02</text></g><g class="tick" transform="translate(23,0)" style="opacity: 1;"><line y2="6" x2="0"></line><text dy=".15em" y="9" x="0" dx="-.8em" transform="rotate(-65)" style="text-anchor: end; font-size: 0.45em;">MAR02</text></g><g class="tick" transform="translate(30,0)" style="opacity: 1;"><line y2="6" x2="0"></line><text dy=".15em" y="9" x="0" dx="-.8em" transform="rotate(-65)" style="text-anchor: end; font-size: 0.45em;">APR02</text></g><g class="tick" transform="translate(37,0)" style="opacity: 1;"><line y2="6" x2="0"></line><text dy=".15em" y="9" x="0" dx="-.8em" transform="rotate(-65)" style="text-anchor: end; font-size: 0.45em;">MAY02</text></g><g class="tick" transform="translate(44,0)" style="opacity: 1;"><line y2="6" x2="0"></line><text dy=".15em" y="9" x="0" dx="-.8em" transform="rotate(-65)" style="text-anchor: end; font-size: 0.45em;">JUN02</text></g><g class="tick" transform="translate(51,0)" style="opacity: 1;"><line y2="6" x2="0"></line><text dy=".15em" y="9" x="0" dx="-.8em" transform="rotate(-65)" style="text-anchor: end; font-size: 0.45em;">JUL02</text></g><g class="tick" transform="translate(58,0)" style="opacity: 1;"><line y2="6" x2="0"></line><text dy=".15em" y="9" x="0" dx="-.8em" transform="rotate(-65)" style="text-anchor: end; font-size: 0.45em;">AUG02</text></g><g class="tick" transform="translate(65,0)" style="opacity: 1;"><line y2="6" x2="0"></line><text dy=".15em" y="9" x="0" dx="-.8em" transform="rotate(-65)" style="text-anchor: end; font-size: 0.45em;">SEP02</text></g><g class="tick" transform="translate(72,0)" style="opacity: 1;"><line y2="6" x2="0"></line><text dy=".15em" y="9" x="0" dx="-.8em" transform="rotate(-65)" style="text-anchor: end; font-size: 0.45em;">OCT02</text></g><g class="tick" transform="translate(79,0)" style="opacity: 1;"><line y2="6" x2="0"></line><text dy=".15em" y="9" x="0" dx="-.8em" transform="rotate(-65)" style="text-anchor: end; font-size: 0.45em;">NOV02</text></g><g class="tick" transform="translate(86,0)" style="opacity: 1;"><line y2="6" x2="0"></line><text dy=".15em" y="9" x="0" dx="-.8em" transform="rotate(-65)" style="text-anchor: end; font-size: 0.45em;">DEC02</text></g><g class="tick" transform="translate(93,0)" style="opacity: 1;"><line y2="6" x2="0"></line><text dy=".15em" y="9" x="0" dx="-.8em" transform="rotate(-65)" style="text-anchor: end; font-size: 0.45em;">JAN03</text></g><g class="tick" transform="translate(100,0)" style="opacity: 1;"><line y2="6" x2="0"></line><text dy=".15em" y="9" x="0" dx="-.8em" transform="rotate(-65)" style="text-anchor: end; font-size: 0.45em;">FEB03</text></g><g class="tick" transform="translate(107,0)" style="opacity: 1;"><line y2="6" x2="0"></line><text dy=".15em" y="9" x="0" dx="-.8em" transform="rotate(-65)" style="text-anchor: end; font-size: 0.45em;">MAR03</text></g><g class="tick" transform="translate(114,0)" style="opacity: 1;"><line y2="6" x2="0"></line><text dy=".15em" y="9" x="0" dx="-.8em" transform="rotate(-65)" style="text-anchor: end; font-size: 0.45em;">APR03</text></g><g class="tick" transform="translate(121,0)" style="opacity: 1;"><line y2="6" x2="0"></line><text dy=".15em" y="9" x="0" dx="-.8em" transform="rotate(-65)" style="text-anchor: end; font-size: 0.45em;">MAY03</text></g><g class="tick" transform="translate(128,0)" style="opacity: 1;"><line y2="6" x2="0"></line><text dy=".15em" y="9" x="0" dx="-.8em" transform="rotate(-65)" style="text-anchor: end; font-size: 0.45em;">JUN03</text></g><g class="tick" transform="translate(135,0)" style="opacity: 1;"><line y2="6" x2="0"></line><text dy=".15em" y="9" x="0" dx="-.8em" transform="rotate(-65)" style="text-anchor: end; font-size: 0.45em;">JUL03</text></g><g class="tick" transform="translate(142,0)" style="opacity: 1;"><line y2="6" x2="0"></line><text dy=".15em" y="9" x="0" dx="-.8em" transform="rotate(-65)" style="text-anchor: end; font-size: 0.45em;">AUG03</text></g><g class="tick" transform="translate(149,0)" style="opacity: 1;"><line y2="6" x2="0"></line><text dy=".15em" y="9" x="0" dx="-.8em" transform="rotate(-65)" style="text-anchor: end; font-size: 0.45em;">SEP03</text></g><g class="tick" transform="translate(156,0)" style="opacity: 1;"><line y2="6" x2="0"></line><text dy=".15em" y="9" x="0" dx="-.8em" transform="rotate(-65)" style="text-anchor: end; font-size: 0.45em;">OCT03</text></g><g class="tick" transform="translate(163,0)" style="opacity: 1;"><line y2="6" x2="0"></line><text dy=".15em" y="9" x="0" dx="-.8em" transform="rotate(-65)" style="text-anchor: end; font-size: 0.45em;">NOV03</text></g><g class="tick" transform="translate(170,0)" style="opacity: 1;"><line y2="6" x2="0"></line><text dy=".15em" y="9" x="0" dx="-.8em" transform="rotate(-65)" style="text-anchor: end; font-size: 0.45em;">DEC03</text></g><g class="tick" transform="translate(177,0)" style="opacity: 1;"><line y2="6" x2="0"></line><text dy=".15em" y="9" x="0" dx="-.8em" transform="rotate(-65)" style="text-anchor: end; font-size: 0.45em;">JAN04</text></g><g class="tick" transform="translate(184,0)" style="opacity: 1;"><line y2="6" x2="0"></line><text dy=".15em" y="9" x="0" dx="-.8em" transform="rotate(-65)" style="text-anchor: end; font-size: 0.45em;">FEB04</text></g><g class="tick" transform="translate(191,0)" style="opacity: 1;"><line y2="6" x2="0"></line><text dy=".15em" y="9" x="0" dx="-.8em" transform="rotate(-65)" style="text-anchor: end; font-size: 0.45em;">MAR04</text></g><g class="tick" transform="translate(198,0)" style="opacity: 1;"><line y2="6" x2="0"></line><text dy=".15em" y="9" x="0" dx="-.8em" transform="rotate(-65)" style="text-anchor: end; font-size: 0.45em;">APR04</text></g><g class="tick" transform="translate(205,0)" style="opacity: 1;"><line y2="6" x2="0"></line><text dy=".15em" y="9" x="0" dx="-.8em" transform="rotate(-65)" style="text-anchor: end; font-size: 0.45em;">MAY04</text></g><g class="tick" transform="translate(212,0)" style="opacity: 1;"><line y2="6" x2="0"></line><text dy=".15em" y="9" x="0" dx="-.8em" transform="rotate(-65)" style="text-anchor: end; font-size: 0.45em;">JUN04</text></g><g class="tick" transform="translate(219,0)" style="opacity: 1;"><line y2="6" x2="0"></line><text dy=".15em" y="9" x="0" dx="-.8em" transform="rotate(-65)" style="text-anchor: end; font-size: 0.45em;">JUL04</text></g><g class="tick" transform="translate(226,0)" style="opacity: 1;"><line y2="6" x2="0"></line><text dy=".15em" y="9" x="0" dx="-.8em" transform="rotate(-65)" style="text-anchor: end; font-size: 0.45em;">AUG04</text></g><g class="tick" transform="translate(233,0)" style="opacity: 1;"><line y2="6" x2="0"></line><text dy=".15em" y="9" x="0" dx="-.8em" transform="rotate(-65)" style="text-anchor: end; font-size: 0.45em;">SEP04</text></g><g class="tick" transform="translate(240,0)" style="opacity: 1;"><line y2="6" x2="0"></line><text dy=".15em" y="9" x="0" dx="-.8em" transform="rotate(-65)" style="text-anchor: end; font-size: 0.45em;">OCT04</text></g><g class="tick" transform="translate(247,0)" style="opacity: 1;"><line y2="6" x2="0"></line><text dy=".15em" y="9" x="0" dx="-.8em" transform="rotate(-65)" style="text-anchor: end; font-size: 0.45em;">NOV04</text></g><g class="tick" transform="translate(254,0)" style="opacity: 1;"><line y2="6" x2="0"></line><text dy=".15em" y="9" x="0" dx="-.8em" transform="rotate(-65)" style="text-anchor: end; font-size: 0.45em;">DEC04</text></g><g class="tick" transform="translate(261,0)" style="opacity: 1;"><line y2="6" x2="0"></line><text dy=".15em" y="9" x="0" dx="-.8em" transform="rotate(-65)" style="text-anchor: end; font-size: 0.45em;">JAN05</text></g><g class="tick" transform="translate(268,0)" style="opacity: 1;"><line y2="6" x2="0"></line><text dy=".15em" y="9" x="0" dx="-.8em" transform="rotate(-65)" style="text-anchor: end; font-size: 0.45em;">FEB05</text></g><g class="tick" transform="translate(275,0)" style="opacity: 1;"><line y2="6" x2="0"></line><text dy=".15em" y="9" x="0" dx="-.8em" transform="rotate(-65)" style="text-anchor: end; font-size: 0.45em;">MAR05</text></g><g class="tick" transform="translate(282,0)" style="opacity: 1;"><line y2="6" x2="0"></line><text dy=".15em" y="9" x="0" dx="-.8em" transform="rotate(-65)" style="text-anchor: end; font-size: 0.45em;">APR05</text></g><g class="tick" transform="translate(289,0)" style="opacity: 1;"><line y2="6" x2="0"></line><text dy=".15em" y="9" x="0" dx="-.8em" transform="rotate(-65)" style="text-anchor: end; font-size: 0.45em;">MAY05</text></g><g class="tick" transform="translate(296,0)" style="opacity: 1;"><line y2="6" x2="0"></line><text dy=".15em" y="9" x="0" dx="-.8em" transform="rotate(-65)" style="text-anchor: end; font-size: 0.45em;">JUN05</text></g><g class="tick" transform="translate(303,0)" style="opacity: 1;"><line y2="6" x2="0"></line><text dy=".15em" y="9" x="0" dx="-.8em" transform="rotate(-65)" style="text-anchor: end; font-size: 0.45em;">JUL05</text></g><g class="tick" transform="translate(310,0)" style="opacity: 1;"><line y2="6" x2="0"></line><text dy=".15em" y="9" x="0" dx="-.8em" transform="rotate(-65)" style="text-anchor: end; font-size: 0.45em;">AUG05</text></g><g class="tick" transform="translate(317,0)" style="opacity: 1;"><line y2="6" x2="0"></line><text dy=".15em" y="9" x="0" dx="-.8em" transform="rotate(-65)" style="text-anchor: end; font-size: 0.45em;">SEP05</text></g><g class="tick" transform="translate(324,0)" style="opacity: 1;"><line y2="6" x2="0"></line><text dy=".15em" y="9" x="0" dx="-.8em" transform="rotate(-65)" style="text-anchor: end; font-size: 0.45em;">OCT05</text></g><g class="tick" transform="translate(331,0)" style="opacity: 1;"><line y2="6" x2="0"></line><text dy=".15em" y="9" x="0" dx="-.8em" transform="rotate(-65)" style="text-anchor: end; font-size: 0.45em;">NOV05</text></g><g class="tick" transform="translate(338,0)" style="opacity: 1;"><line y2="6" x2="0"></line><text dy=".15em" y="9" x="0" dx="-.8em" transform="rotate(-65)" style="text-anchor: end; font-size: 0.45em;">DEC05</text></g><g class="tick" transform="translate(345,0)" style="opacity: 1;"><line y2="6" x2="0"></line><text dy=".15em" y="9" x="0" dx="-.8em" transform="rotate(-65)" style="text-anchor: end; font-size: 0.45em;">JAN06</text></g><g class="tick" transform="translate(352,0)" style="opacity: 1;"><line y2="6" x2="0"></line><text dy=".15em" y="9" x="0" dx="-.8em" transform="rotate(-65)" style="text-anchor: end; font-size: 0.45em;">FEB06</text></g><g class="tick" transform="translate(359,0)" style="opacity: 1;"><line y2="6" x2="0"></line><text dy=".15em" y="9" x="0" dx="-.8em" transform="rotate(-65)" style="text-anchor: end; font-size: 0.45em;">MAR06</text></g><g class="tick" transform="translate(366,0)" style="opacity: 1;"><line y2="6" x2="0"></line><text dy=".15em" y="9" x="0" dx="-.8em" transform="rotate(-65)" style="text-anchor: end; font-size: 0.45em;">APR06</text></g><g class="tick" transform="translate(373,0)" style="opacity: 1;"><line y2="6" x2="0"></line><text dy=".15em" y="9" x="0" dx="-.8em" transform="rotate(-65)" style="text-anchor: end; font-size: 0.45em;">MAY06</text></g><g class="tick" transform="translate(380,0)" style="opacity: 1;"><line y2="6" x2="0"></line><text dy=".15em" y="9" x="0" dx="-.8em" transform="rotate(-65)" style="text-anchor: end; font-size: 0.45em;">JUN06</text></g><g class="tick" transform="translate(387,0)" style="opacity: 1;"><line y2="6" x2="0"></line><text dy=".15em" y="9" x="0" dx="-.8em" transform="rotate(-65)" style="text-anchor: end; font-size: 0.45em;">JUL06</text></g><g class="tick" transform="translate(394,0)" style="opacity: 1;"><line y2="6" x2="0"></line><text dy=".15em" y="9" x="0" dx="-.8em" transform="rotate(-65)" style="text-anchor: end; font-size: 0.45em;">AUG06</text></g><g class="tick" transform="translate(401,0)" style="opacity: 1;"><line y2="6" x2="0"></line><text dy=".15em" y="9" x="0" dx="-.8em" transform="rotate(-65)" style="text-anchor: end; font-size: 0.45em;">SEP06</text></g><g class="tick" transform="translate(408,0)" style="opacity: 1;"><line y2="6" x2="0"></line><text dy=".15em" y="9" x="0" dx="-.8em" transform="rotate(-65)" style="text-anchor: end; font-size: 0.45em;">OCT06</text></g><g class="tick" transform="translate(415,0)" style="opacity: 1;"><line y2="6" x2="0"></line><text dy=".15em" y="9" x="0" dx="-.8em" transform="rotate(-65)" style="text-anchor: end; font-size: 0.45em;">NOV06</text></g><g class="tick" transform="translate(422,0)" style="opacity: 1;"><line y2="6" x2="0"></line><text dy=".15em" y="9" x="0" dx="-.8em" transform="rotate(-65)" style="text-anchor: end; font-size: 0.45em;">DEC06</text></g><g class="tick" transform="translate(429,0)" style="opacity: 1;"><line y2="6" x2="0"></line><text dy=".15em" y="9" x="0" dx="-.8em" transform="rotate(-65)" style="text-anchor: end; font-size: 0.45em;">JAN07</text></g><g class="tick" transform="translate(436,0)" style="opacity: 1;"><line y2="6" x2="0"></line><text dy=".15em" y="9" x="0" dx="-.8em" transform="rotate(-65)" style="text-anchor: end; font-size: 0.45em;">FEB07</text></g><g class="tick" transform="translate(443,0)" style="opacity: 1;"><line y2="6" x2="0"></line><text dy=".15em" y="9" x="0" dx="-.8em" transform="rotate(-65)" style="text-anchor: end; font-size: 0.45em;">MAR07</text></g><g class="tick" transform="translate(450,0)" style="opacity: 1;"><line y2="6" x2="0"></line><text dy=".15em" y="9" x="0" dx="-.8em" transform="rotate(-65)" style="text-anchor: end; font-size: 0.45em;">APR07</text></g><g class="tick" transform="translate(457,0)" style="opacity: 1;"><line y2="6" x2="0"></line><text dy=".15em" y="9" x="0" dx="-.8em" transform="rotate(-65)" style="text-anchor: end; font-size: 0.45em;">MAY07</text></g><g class="tick" transform="translate(464,0)" style="opacity: 1;"><line y2="6" x2="0"></line><text dy=".15em" y="9" x="0" dx="-.8em" transform="rotate(-65)" style="text-anchor: end; font-size: 0.45em;">JUN07</text></g><g class="tick" transform="translate(471,0)" style="opacity: 1;"><line y2="6" x2="0"></line><text dy=".15em" y="9" x="0" dx="-.8em" transform="rotate(-65)" style="text-anchor: end; font-size: 0.45em;">JUL07</text></g><g class="tick" transform="translate(478,0)" style="opacity: 1;"><line y2="6" x2="0"></line><text dy=".15em" y="9" x="0" dx="-.8em" transform="rotate(-65)" style="text-anchor: end; font-size: 0.45em;">AUG07</text></g><g class="tick" transform="translate(485,0)" style="opacity: 1;"><line y2="6" x2="0"></line><text dy=".15em" y="9" x="0" dx="-.8em" transform="rotate(-65)" style="text-anchor: end; font-size: 0.45em;">SEP07</text></g><g class="tick" transform="translate(492,0)" style="opacity: 1;"><line y2="6" x2="0"></line><text dy=".15em" y="9" x="0" dx="-.8em" transform="rotate(-65)" style="text-anchor: end; font-size: 0.45em;">OCT07</text></g><g class="tick" transform="translate(499,0)" style="opacity: 1;"><line y2="6" x2="0"></line><text dy=".15em" y="9" x="0" dx="-.8em" transform="rotate(-65)" style="text-anchor: end; font-size: 0.45em;">NOV07</text></g><g class="tick" transform="translate(506,0)" style="opacity: 1;"><line y2="6" x2="0"></line><text dy=".15em" y="9" x="0" dx="-.8em" transform="rotate(-65)" style="text-anchor: end; font-size: 0.45em;">DEC07</text></g><g class="tick" transform="translate(513,0)" style="opacity: 1;"><line y2="6" x2="0"></line><text dy=".15em" y="9" x="0" dx="-.8em" transform="rotate(-65)" style="text-anchor: end; font-size: 0.45em;">JAN08</text></g><g class="tick" transform="translate(520,0)" style="opacity: 1;"><line y2="6" x2="0"></line><text dy=".15em" y="9" x="0" dx="-.8em" transform="rotate(-65)" style="text-anchor: end; font-size: 0.45em;">FEB08</text></g><g class="tick" transform="translate(527,0)" style="opacity: 1;"><line y2="6" x2="0"></line><text dy=".15em" y="9" x="0" dx="-.8em" transform="rotate(-65)" style="text-anchor: end; font-size: 0.45em;">MAR08</text></g><g class="tick" transform="translate(534,0)" style="opacity: 1;"><line y2="6" x2="0"></line><text dy=".15em" y="9" x="0" dx="-.8em" transform="rotate(-65)" style="text-anchor: end; font-size: 0.45em;">APR08</text></g><g class="tick" transform="translate(541,0)" style="opacity: 1;"><line y2="6" x2="0"></line><text dy=".15em" y="9" x="0" dx="-.8em" transform="rotate(-65)" style="text-anchor: end; font-size: 0.45em;">MAY08</text></g><g class="tick" transform="translate(548,0)" style="opacity: 1;"><line y2="6" x2="0"></line><text dy=".15em" y="9" x="0" dx="-.8em" transform="rotate(-65)" style="text-anchor: end; font-size: 0.45em;">JUN08</text></g><g class="tick" transform="translate(555,0)" style="opacity: 1;"><line y2="6" x2="0"></line><text dy=".15em" y="9" x="0" dx="-.8em" transform="rotate(-65)" style="text-anchor: end; font-size: 0.45em;">JUL08</text></g><g class="tick" transform="translate(562,0)" style="opacity: 1;"><line y2="6" x2="0"></line><text dy=".15em" y="9" x="0" dx="-.8em" transform="rotate(-65)" style="text-anchor: end; font-size: 0.45em;">AUG08</text></g><g class="tick" transform="translate(569,0)" style="opacity: 1;"><line y2="6" x2="0"></line><text dy=".15em" y="9" x="0" dx="-.8em" transform="rotate(-65)" style="text-anchor: end; font-size: 0.45em;">SEP08</text></g><g class="tick" transform="translate(576,0)" style="opacity: 1;"><line y2="6" x2="0"></line><text dy=".15em" y="9" x="0" dx="-.8em" transform="rotate(-65)" style="text-anchor: end; font-size: 0.45em;">OCT08</text></g><g class="tick" transform="translate(583,0)" style="opacity: 1;"><line y2="6" x2="0"></line><text dy=".15em" y="9" x="0" dx="-.8em" transform="rotate(-65)" style="text-anchor: end; font-size: 0.45em;">NOV08</text></g><g class="tick" transform="translate(590,0)" style="opacity: 1;"><line y2="6" x2="0"></line><text dy=".15em" y="9" x="0" dx="-.8em" transform="rotate(-65)" style="text-anchor: end; font-size: 0.45em;">DEC08</text></g><g class="tick" transform="translate(597,0)" style="opacity: 1;"><line y2="6" x2="0"></line><text dy=".15em" y="9" x="0" dx="-.8em" transform="rotate(-65)" style="text-anchor: end; font-size: 0.45em;">JAN09</text></g><g class="tick" transform="translate(604,0)" style="opacity: 1;"><line y2="6" x2="0"></line><text dy=".15em" y="9" x="0" dx="-.8em" transform="rotate(-65)" style="text-anchor: end; font-size: 0.45em;">FEB09</text></g><g class="tick" transform="translate(611,0)" style="opacity: 1;"><line y2="6" x2="0"></line><text dy=".15em" y="9" x="0" dx="-.8em" transform="rotate(-65)" style="text-anchor: end; font-size: 0.45em;">MAR09</text></g><g class="tick" transform="translate(618,0)" style="opacity: 1;"><line y2="6" x2="0"></line><text dy=".15em" y="9" x="0" dx="-.8em" transform="rotate(-65)" style="text-anchor: end; font-size: 0.45em;">APR09</text></g><g class="tick" transform="translate(625,0)" style="opacity: 1;"><line y2="6" x2="0"></line><text dy=".15em" y="9" x="0" dx="-.8em" transform="rotate(-65)" style="text-anchor: end; font-size: 0.45em;">MAY09</text></g><g class="tick" transform="translate(632,0)" style="opacity: 1;"><line y2="6" x2="0"></line><text dy=".15em" y="9" x="0" dx="-.8em" transform="rotate(-65)" style="text-anchor: end; font-size: 0.45em;">JUN09</text></g><g class="tick" transform="translate(639,0)" style="opacity: 1;"><line y2="6" x2="0"></line><text dy=".15em" y="9" x="0" dx="-.8em" transform="rotate(-65)" style="text-anchor: end; font-size: 0.45em;">JUL09</text></g><g class="tick" transform="translate(646,0)" style="opacity: 1;"><line y2="6" x2="0"></line><text dy=".15em" y="9" x="0" dx="-.8em" transform="rotate(-65)" style="text-anchor: end; font-size: 0.45em;">AUG09</text></g><g class="tick" transform="translate(653,0)" style="opacity: 1;"><line y2="6" x2="0"></line><text dy=".15em" y="9" x="0" dx="-.8em" transform="rotate(-65)" style="text-anchor: end; font-size: 0.45em;">SEP09</text></g><g class="tick" transform="translate(660,0)" style="opacity: 1;"><line y2="6" x2="0"></line><text dy=".15em" y="9" x="0" dx="-.8em" transform="rotate(-65)" style="text-anchor: end; font-size: 0.45em;">OCT09</text></g><g class="tick" transform="translate(667,0)" style="opacity: 1;"><line y2="6" x2="0"></line><text dy=".15em" y="9" x="0" dx="-.8em" transform="rotate(-65)" style="text-anchor: end; font-size: 0.45em;">NOV09</text></g><g class="tick" transform="translate(674,0)" style="opacity: 1;"><line y2="6" x2="0"></line><text dy=".15em" y="9" x="0" dx="-.8em" transform="rotate(-65)" style="text-anchor: end; font-size: 0.45em;">DEC09</text></g><g class="tick" transform="translate(681,0)" style="opacity: 1;"><line y2="6" x2="0"></line><text dy=".15em" y="9" x="0" dx="-.8em" transform="rotate(-65)" style="text-anchor: end; font-size: 0.45em;">JAN10</text></g><g class="tick" transform="translate(688,0)" style="opacity: 1;"><line y2="6" x2="0"></line><text dy=".15em" y="9" x="0" dx="-.8em" transform="rotate(-65)" style="text-anchor: end; font-size: 0.45em;">FEB10</text></g><g class="tick" transform="translate(695,0)" style="opacity: 1;"><line y2="6" x2="0"></line><text dy=".15em" y="9" x="0" dx="-.8em" transform="rotate(-65)" style="text-anchor: end; font-size: 0.45em;">MAR10</text></g><g class="tick" transform="translate(702,0)" style="opacity: 1;"><line y2="6" x2="0"></line><text dy=".15em" y="9" x="0" dx="-.8em" transform="rotate(-65)" style="text-anchor: end; font-size: 0.45em;">APR10</text></g><g class="tick" transform="translate(709,0)" style="opacity: 1;"><line y2="6" x2="0"></line><text dy=".15em" y="9" x="0" dx="-.8em" transform="rotate(-65)" style="text-anchor: end; font-size: 0.45em;">MAY10</text></g><g class="tick" transform="translate(716,0)" style="opacity: 1;"><line y2="6" x2="0"></line><text dy=".15em" y="9" x="0" dx="-.8em" transform="rotate(-65)" style="text-anchor: end; font-size: 0.45em;">JUN10</text></g><g class="tick" transform="translate(723,0)" style="opacity: 1;"><line y2="6" x2="0"></line><text dy=".15em" y="9" x="0" dx="-.8em" transform="rotate(-65)" style="text-anchor: end; font-size: 0.45em;">JUL10</text></g><g class="tick" transform="translate(730,0)" style="opacity: 1;"><line y2="6" x2="0"></line><text dy=".15em" y="9" x="0" dx="-.8em" transform="rotate(-65)" style="text-anchor: end; font-size: 0.45em;">AUG10</text></g><g class="tick" transform="translate(737,0)" style="opacity: 1;"><line y2="6" x2="0"></line><text dy=".15em" y="9" x="0" dx="-.8em" transform="rotate(-65)" style="text-anchor: end; font-size: 0.45em;">SEP10</text></g><g class="tick" transform="translate(744,0)" style="opacity: 1;"><line y2="6" x2="0"></line><text dy=".15em" y="9" x="0" dx="-.8em" transform="rotate(-65)" style="text-anchor: end; font-size: 0.45em;">OCT10</text></g><g class="tick" transform="translate(751,0)" style="opacity: 1;"><line y2="6" x2="0"></line><text dy=".15em" y="9" x="0" dx="-.8em" transform="rotate(-65)" style="text-anchor: end; font-size: 0.45em;">NOV10</text></g><g class="tick" transform="translate(758,0)" style="opacity: 1;"><line y2="6" x2="0"></line><text dy=".15em" y="9" x="0" dx="-.8em" transform="rotate(-65)" style="text-anchor: end; font-size: 0.45em;">DEC10</text></g><g class="tick" transform="translate(765,0)" style="opacity: 1;"><line y2="6" x2="0"></line><text dy=".15em" y="9" x="0" dx="-.8em" transform="rotate(-65)" style="text-anchor: end; font-size: 0.45em;">JAN11</text></g><g class="tick" transform="translate(772,0)" style="opacity: 1;"><line y2="6" x2="0"></line><text dy=".15em" y="9" x="0" dx="-.8em" transform="rotate(-65)" style="text-anchor: end; font-size: 0.45em;">FEB11</text></g><g class="tick" transform="translate(779,0)" style="opacity: 1;"><line y2="6" x2="0"></line><text dy=".15em" y="9" x="0" dx="-.8em" transform="rotate(-65)" style="text-anchor: end; font-size: 0.45em;">MAR11</text></g><g class="tick" transform="translate(786,0)" style="opacity: 1;"><line y2="6" x2="0"></line><text dy=".15em" y="9" x="0" dx="-.8em" transform="rotate(-65)" style="text-anchor: end; font-size: 0.45em;">APR11</text></g><g class="tick" transform="translate(793,0)" style="opacity: 1;"><line y2="6" x2="0"></line><text dy=".15em" y="9" x="0" dx="-.8em" transform="rotate(-65)" style="text-anchor: end; font-size: 0.45em;">MAY11</text></g><g class="tick" transform="translate(800,0)" style="opacity: 1;"><line y2="6" x2="0"></line><text dy=".15em" y="9" x="0" dx="-.8em" transform="rotate(-65)" style="text-anchor: end; font-size: 0.45em;">JUN11</text></g><g class="tick" transform="translate(807,0)" style="opacity: 1;"><line y2="6" x2="0"></line><text dy=".15em" y="9" x="0" dx="-.8em" transform="rotate(-65)" style="text-anchor: end; font-size: 0.45em;">JUL11</text></g><g class="tick" transform="translate(814,0)" style="opacity: 1;"><line y2="6" x2="0"></line><text dy=".15em" y="9" x="0" dx="-.8em" transform="rotate(-65)" style="text-anchor: end; font-size: 0.45em;">AUG11</text></g><g class="tick" transform="translate(821,0)" style="opacity: 1;"><line y2="6" x2="0"></line><text dy=".15em" y="9" x="0" dx="-.8em" transform="rotate(-65)" style="text-anchor: end; font-size: 0.45em;">SEP11</text></g><g class="tick" transform="translate(828,0)" style="opacity: 1;"><line y2="6" x2="0"></line><text dy=".15em" y="9" x="0" dx="-.8em" transform="rotate(-65)" style="text-anchor: end; font-size: 0.45em;">OCT11</text></g><g class="tick" transform="translate(835,0)" style="opacity: 1;"><line y2="6" x2="0"></line><text dy=".15em" y="9" x="0" dx="-.8em" transform="rotate(-65)" style="text-anchor: end; font-size: 0.45em;">NOV11</text></g><g class="tick" transform="translate(842,0)" style="opacity: 1;"><line y2="6" x2="0"></line><text dy=".15em" y="9" x="0" dx="-.8em" transform="rotate(-65)" style="text-anchor: end; font-size: 0.45em;">DEC11</text></g><g class="tick" transform="translate(849,0)" style="opacity: 1;"><line y2="6" x2="0"></line><text dy=".15em" y="9" x="0" dx="-.8em" transform="rotate(-65)" style="text-anchor: end; font-size: 0.45em;">JAN12</text></g><g class="tick" transform="translate(856,0)" style="opacity: 1;"><line y2="6" x2="0"></line><text dy=".15em" y="9" x="0" dx="-.8em" transform="rotate(-65)" style="text-anchor: end; font-size: 0.45em;">FEB12</text></g><g class="tick" transform="translate(863,0)" style="opacity: 1;"><line y2="6" x2="0"></line><text dy=".15em" y="9" x="0" dx="-.8em" transform="rotate(-65)" style="text-anchor: end; font-size: 0.45em;">MAR12</text></g><g class="tick" transform="translate(870,0)" style="opacity: 1;"><line y2="6" x2="0"></line><text dy=".15em" y="9" x="0" dx="-.8em" transform="rotate(-65)" style="text-anchor: end; font-size: 0.45em;">APR12</text></g><g class="tick" transform="translate(877,0)" style="opacity: 1;"><line y2="6" x2="0"></line><text dy=".15em" y="9" x="0" dx="-.8em" transform="rotate(-65)" style="text-anchor: end; font-size: 0.45em;">MAY12</text></g><g class="tick" transform="translate(884,0)" style="opacity: 1;"><line y2="6" x2="0"></line><text dy=".15em" y="9" x="0" dx="-.8em" transform="rotate(-65)" style="text-anchor: end; font-size: 0.45em;">JUN12</text></g><g class="tick" transform="translate(891,0)" style="opacity: 1;"><line y2="6" x2="0"></line><text dy=".15em" y="9" x="0" dx="-.8em" transform="rotate(-65)" style="text-anchor: end; font-size: 0.45em;">JUL12</text></g><g class="tick" transform="translate(898,0)" style="opacity: 1;"><line y2="6" x2="0"></line><text dy=".15em" y="9" x="0" dx="-.8em" transform="rotate(-65)" style="text-anchor: end; font-size: 0.45em;">AUG12</text></g><g class="tick" transform="translate(905,0)" style="opacity: 1;"><line y2="6" x2="0"></line><text dy=".15em" y="9" x="0" dx="-.8em" transform="rotate(-65)" style="text-anchor: end; font-size: 0.45em;">SEP12</text></g><g class="tick" transform="translate(912,0)" style="opacity: 1;"><line y2="6" x2="0"></line><text dy=".15em" y="9" x="0" dx="-.8em" transform="rotate(-65)" style="text-anchor: end; font-size: 0.45em;">OCT12</text></g><g class="tick" transform="translate(919,0)" style="opacity: 1;"><line y2="6" x2="0"></line><text dy=".15em" y="9" x="0" dx="-.8em" transform="rotate(-65)" style="text-anchor: end; font-size: 0.45em;">NOV12</text></g><g class="tick" transform="translate(926,0)" style="opacity: 1;"><line y2="6" x2="0"></line><text dy=".15em" y="9" x="0" dx="-.8em" transform="rotate(-65)" style="text-anchor: end; font-size: 0.45em;">DEC12</text></g><g class="tick" transform="translate(933,0)" style="opacity: 1;"><line y2="6" x2="0"></line><text dy=".15em" y="9" x="0" dx="-.8em" transform="rotate(-65)" style="text-anchor: end; font-size: 0.45em;">JAN13</text></g><g class="tick" transform="translate(940,0)" style="opacity: 1;"><line y2="6" x2="0"></line><text dy=".15em" y="9" x="0" dx="-.8em" transform="rotate(-65)" style="text-anchor: end; font-size: 0.45em;">FEB13</text></g><g class="tick" transform="translate(947,0)" style="opacity: 1;"><line y2="6" x2="0"></line><text dy=".15em" y="9" x="0" dx="-.8em" transform="rotate(-65)" style="text-anchor: end; font-size: 0.45em;">MAR13</text></g><g class="tick" transform="translate(954,0)" style="opacity: 1;"><line y2="6" x2="0"></line><text dy=".15em" y="9" x="0" dx="-.8em" transform="rotate(-65)" style="text-anchor: end; font-size: 0.45em;">APR13</text></g><g class="tick" transform="translate(961,0)" style="opacity: 1;"><line y2="6" x2="0"></line><text dy=".15em" y="9" x="0" dx="-.8em" transform="rotate(-65)" style="text-anchor: end; font-size: 0.45em;">MAY13</text></g><g class="tick" transform="translate(968,0)" style="opacity: 1;"><line y2="6" x2="0"></line><text dy=".15em" y="9" x="0" dx="-.8em" transform="rotate(-65)" style="text-anchor: end; font-size: 0.45em;">JUN13</text></g><g class="tick" transform="translate(975,0)" style="opacity: 1;"><line y2="6" x2="0"></line><text dy=".15em" y="9" x="0" dx="-.8em" transform="rotate(-65)" style="text-anchor: end; font-size: 0.45em;">JUL13</text></g><g class="tick" transform="translate(982,0)" style="opacity: 1;"><line y2="6" x2="0"></line><text dy=".15em" y="9" x="0" dx="-.8em" transform="rotate(-65)" style="text-anchor: end; font-size: 0.45em;">AUG13</text></g><g class="tick" transform="translate(989,0)" style="opacity: 1;"><line y2="6" x2="0"></line><text dy=".15em" y="9" x="0" dx="-.8em" transform="rotate(-65)" style="text-anchor: end; font-size: 0.45em;">SEP13</text></g><g class="tick" transform="translate(996,0)" style="opacity: 1;"><line y2="6" x2="0"></line><text dy=".15em" y="9" x="0" dx="-.8em" transform="rotate(-65)" style="text-anchor: end; font-size: 0.45em;">OCT13</text></g><g class="tick" transform="translate(1003,0)" style="opacity: 1;"><line y2="6" x2="0"></line><text dy=".15em" y="9" x="0" dx="-.8em" transform="rotate(-65)" style="text-anchor: end; font-size: 0.45em;">NOV13</text></g><g class="tick" transform="translate(1010,0)" style="opacity: 1;"><line y2="6" x2="0"></line><text dy=".15em" y="9" x="0" dx="-.8em" transform="rotate(-65)" style="text-anchor: end; font-size: 0.45em;">DEC13</text></g><g class="tick" transform="translate(1017,0)" style="opacity: 1;"><line y2="6" x2="0"></line><text dy=".15em" y="9" x="0" dx="-.8em" transform="rotate(-65)" style="text-anchor: end; font-size: 0.45em;">JAN14</text></g><g class="tick" transform="translate(1024,0)" style="opacity: 1;"><line y2="6" x2="0"></line><text dy=".15em" y="9" x="0" dx="-.8em" transform="rotate(-65)" style="text-anchor: end; font-size: 0.45em;">FEB14</text></g><g class="tick" transform="translate(1031,0)" style="opacity: 1;"><line y2="6" x2="0"></line><text dy=".15em" y="9" x="0" dx="-.8em" transform="rotate(-65)" style="text-anchor: end; font-size: 0.45em;">MAR14</text></g><g class="tick" transform="translate(1038,0)" style="opacity: 1;"><line y2="6" x2="0"></line><text dy=".15em" y="9" x="0" dx="-.8em" transform="rotate(-65)" style="text-anchor: end; font-size: 0.45em;">APR14</text></g><g class="tick" transform="translate(1045,0)" style="opacity: 1;"><line y2="6" x2="0"></line><text dy=".15em" y="9" x="0" dx="-.8em" transform="rotate(-65)" style="text-anchor: end; font-size: 0.45em;">MAY14</text></g><g class="tick" transform="translate(1052,0)" style="opacity: 1;"><line y2="6" x2="0"></line><text dy=".15em" y="9" x="0" dx="-.8em" transform="rotate(-65)" style="text-anchor: end; font-size: 0.45em;">JUN14</text></g><g class="tick" transform="translate(1059,0)" style="opacity: 1;"><line y2="6" x2="0"></line><text dy=".15em" y="9" x="0" dx="-.8em" transform="rotate(-65)" style="text-anchor: end; font-size: 0.45em;">JUL14</text></g><g class="tick" transform="translate(1066,0)" style="opacity: 1;"><line y2="6" x2="0"></line><text dy=".15em" y="9" x="0" dx="-.8em" transform="rotate(-65)" style="text-anchor: end; font-size: 0.45em;">AUG14</text></g><g class="tick" transform="translate(1073,0)" style="opacity: 1;"><line y2="6" x2="0"></line><text dy=".15em" y="9" x="0" dx="-.8em" transform="rotate(-65)" style="text-anchor: end; font-size: 0.45em;">SEP14</text></g><g class="tick" transform="translate(1080,0)" style="opacity: 1;"><line y2="6" x2="0"></line><text dy=".15em" y="9" x="0" dx="-.8em" transform="rotate(-65)" style="text-anchor: end; font-size: 0.45em;"></text></g><path class="domain" d="M0,6V0H1090V6"></path></g><g class="y axis"><g class="tick" transform="translate(0,430)" style="opacity: 1;"><line x2="-6" y2="0"></line><text dy=".32em" x="-9" y="0" style="text-anchor: end;">0</text></g><g class="tick" transform="translate(0,376.1330211219941)" style="opacity: 1;"><line x2="-6" y2="0"></line><text dy=".32em" x="-9" y="0" style="text-anchor: end;">1,000,000</text></g><g class="tick" transform="translate(0,322.26604224398807)" style="opacity: 1;"><line x2="-6" y2="0"></line><text dy=".32em" x="-9" y="0" style="text-anchor: end;">2,000,000</text></g><g class="tick" transform="translate(0,268.3990633659821)" style="opacity: 1;"><line x2="-6" y2="0"></line><text dy=".32em" x="-9" y="0" style="text-anchor: end;">3,000,000</text></g><g class="tick" transform="translate(0,214.5320844879762)" style="opacity: 1;"><line x2="-6" y2="0"></line><text dy=".32em" x="-9" y="0" style="text-anchor: end;">4,000,000</text></g><g class="tick" transform="translate(0,160.66510560997025)" style="opacity: 1;"><line x2="-6" y2="0"></line><text dy=".32em" x="-9" y="0" style="text-anchor: end;">5,000,000</text></g><g class="tick" transform="translate(0,106.79812673196429)" style="opacity: 1;"><line x2="-6" y2="0"></line><text dy=".32em" x="-9" y="0" style="text-anchor: end;">6,000,000</text></g><g class="tick" transform="translate(0,52.93114785395836)" style="opacity: 1;"><line x2="-6" y2="0"></line><text dy=".32em" x="-9" y="0" style="text-anchor: end;">7,000,000</text></g><path class="domain" d="M-6,0H0V430H-6"></path><text transform="rotate(-90)" y="6" dy=".71em" style="text-anchor: end;">Number of Unlinked Passenger Trips</text></g><line class="y" x1="0" x2="1090" y1="430" y2="430" style="stroke: rgb(204, 204, 204);"></line><line class="y" x1="0" x2="1090" y1="376.1330211219941" y2="376.1330211219941" style="stroke: rgb(204, 204, 204);"></line><line class="y" x1="0" x2="1090" y1="322.26604224398807" y2="322.26604224398807" style="stroke: rgb(204, 204, 204);"></line><line class="y" x1="0" x2="1090" y1="268.3990633659821" y2="268.3990633659821" style="stroke: rgb(204, 204, 204);"></line><line class="y" x1="0" x2="1090" y1="214.5320844879762" y2="214.5320844879762" style="stroke: rgb(204, 204, 204);"></line><line class="y" x1="0" x2="1090" y1="160.66510560997025" y2="160.66510560997025" style="stroke: rgb(204, 204, 204);"></line><line class="y" x1="0" x2="1090" y1="106.79812673196429" y2="106.79812673196429" style="stroke: rgb(204, 204, 204);"></line><line class="y" x1="0" x2="1090" y1="52.93114785395836" y2="52.93114785395836" style="stroke: rgb(204, 204, 204);"></line><g class="chart"><path class="line" d="M9,429.0655695174032Q14.6,429.08025365584535,16,429.07359569725605C18.1,429.0636087593721,20.9,429.0140026585233,23,428.99898993151S27.9,428.98353010857204,30,428.97351085050076S34.9,428.9314595934396,37,428.9321948777013S41.9,428.9770068174299,44,428.9784127455786S48.9,428.95510181046916,51,428.94156773202604S55.9,428.89019748761905,58,428.88818555595793S62.9,428.94101828884146,65,428.9281548542854S69.9,428.80828735953713,72,428.80242932558417S76.9,428.87134943170963,79,428.8891012945989S83.9,428.9277643186886,86,428.9207750781792S90.9,428.8543113062905,93,428.8425063578694S97.9,428.86110393232707,100,428.8420754220384S104.9,428.7361163812364,107,428.7156496226117S111.9,428.7090159041628,114,428.70563036454035S118.9,428.6868819625419,121,428.69307935846183S125.9,428.74919259035903,128,428.7469463373398S132.9,428.69125865457573,135,428.67810433833375S139.9,428.6584913713243,142,428.6592508957265S146.9,428.6973563965847,149,428.68316783434824S153.9,428.55393017862417,156,428.56466048081666S160.9,428.73408290278377,163,428.7547031822983S167.9,428.7133117957284,170,428.7021290109133S174.9,428.6851689926136,177,428.68015128353113S181.9,428.6984525896049,184,428.6686776170301S188.9,428.50423519726024,191,428.48165146636563S195.9,428.5038823685486,198,428.51811941106604S202.9,428.5761853209476,205,428.5765650831487S209.9,428.51543952886686,212,428.52065115907334S216.9,428.5968702408368,219,428.611309284525S223.9,428.60887180373084,226,428.61691145032836S230.9,428.67452218423836,233,428.66490692850863S237.9,428.56236036081856,240,428.5528097454635S244.9,428.60061399586874,247,428.6012361594748S251.9,428.564310345454,254,428.5569575028371S258.9,428.5579298018058,261,428.5522172086958S265.9,428.5650914166477,268,428.5188735487704S272.9,428.27633747637213,275,428.2440980895136S279.9,428.2908707872734,282,428.3039443030471S286.9,428.32245569033853,289,428.33125486133827S293.9,428.3337596758561,296,428.36260544304525S300.9,428.5283110434698,303,428.52355997593276S307.9,428.3533295492824,310,428.33093165946497S314.9,428.37119453282736,317,428.3742407104829S321.9,428.34776509036436,324,428.351239510502S328.9,428.37841540134593,331,428.39740351140046S335.9,428.47854603503333,338,428.4778269108653S342.9,428.3966412936493,345,428.3926093502803S349.9,428.4866126151203,352,428.4509472884052S356.9,428.16610409079624,359,428.1548405055128S363.9,428.3582422177561,366,428.37585671984925S370.9,428.2823544179128,373,428.2722705194669S377.9,428.28092424962364,380,428.30863073020953S384.9,428.47306776328145,387,428.4569803900395S391.9,428.21641046237033,394,428.2013815752634S398.9,428.3475765559383,401,428.3567878093264S405.9,428.2646725820961,408,428.26278993118433S412.9,428.31410630861245,415,428.34423680324784S419.9,428.4649527029135,422,428.4636598954204S426.9,428.3383976227375,429,428.3356180866274S433.9,428.45943133757845,436,428.44512965468635S440.9,428.2593666846766,443,428.2402735340133S447.9,428.32701283675163,450,428.31784198359765S454.9,428.18183324862855,457,428.17913451298676S461.9,428.2815006262976,464,428.2998504126524S468.9,428.3184345203653,471,428.30146642201873S475.9,428.1841279819287,478,428.18672975700855S482.9,428.3281682834485,485,428.31881158921743S489.9,428.1312683155558,492,428.1243517954679S496.9,428.2320264995471,499,428.27270145529786S503.9,428.4098440901723,506,428.3955181671397S510.9,428.2147998397019,513,428.1771953017472S517.9,428.1637689572618,520,428.1448212474415S524.9,428.07826051499086,527,428.0508772362782S531.9,427.97922607432366,534,427.9622660560239S538.9,427.9167619256167,541,427.9378104476133S545.9,428.0941135668747,548,428.1025895360011S552.9,428.0211265038439,555,427.9943169084563S559.9,427.9435822944001,562,427.92385890008387S566.9,427.89589116465044,569,427.8628276130151S573.9,427.67522777902565,576,427.7034352225151S580.9,428.01799952572003,583,428.0508772362782S587.9,427.9513122058691,590,427.9226199595697S594.9,427.86697267703977,597,427.85959559428244S601.9,427.89751794741255,604,427.8734394078541S608.9,427.71741370353396,611,427.699071997226S615.9,427.7368839230494,618,427.751161365801S622.9,427.7965739223441,625,427.7942549489034S629.9,427.7396284456232,632,427.735701542863S636.9,427.76887552180506,639,427.7680755971687S643.9,427.72765381621866,646,427.7303687119541S650.9,427.80214915465797,653,427.7861749020717S657.9,427.6204639149493,660,427.6238736947123S664.9,427.7797458781426,667,427.8089067671582S671.9,427.8033234547975,674,427.818279621483S678.9,427.9004052174804,681,427.9086145450614S685.9,427.9327927385308,688,427.87300847202306S692.9,427.55628679631405,695,427.5100527683431S699.9,427.546302551779,702,427.5647816188831S706.9,427.62847124135953,709,427.6332465490371S713.9,427.5890944797997,716,427.5966170034S720.9,427.69079802927035,723,427.6833967063725S727.9,427.5587646773424,730,427.5472748507477S734.9,427.61143580928933,737,427.6067978624079S741.9,427.50609354539546,744,427.51635520487173S748.9,427.65020926068576,751,427.67520892558304S755.9,427.62764707658266,758,427.6830196375203S762.9,428.05414426854713,765,428.04435933183396S769.9,427.72949337354737,772,427.6177867260991S776.9,427.32449449285303,779,427.29964834884555S783.9,427.43145276611324,786,427.4521457660492S790.9,427.44757245954247,793,427.43760168175214S797.9,427.37733530578345,800,427.38567391411374S804.9,427.52544795090637,807,427.4931924039542S811.9,427.198133333801,814,427.17063693443276S818.9,427.2744116692412,821,427.3098830748324S825.9,427.3802548960386,828,427.4071129717072S832.9,427.475968437458,835,427.4889369126229S839.9,427.4932705110736,842,427.49356947280637S846.9,427.50176533364265,849,427.4909299908413S853.9,427.456425497521,856,427.421333854131S860.9,427.2570341818552,863,427.2569857015742S867.9,427.41348004861055,870,427.4210106522577S874.9,427.3078118894945,877,427.30718972588846S881.9,427.3906108227279,884,427.4168628948841S888.9,427.5213109669286,891,427.48220354026313S895.9,427.1477030681754,898,427.15614671711455S902.9,427.5308831290752,905,427.53849453319066S909.9,427.20478051899454,912,427.2068894112176S916.9,427.48144940255884,919,427.5525538146778S923.9,427.69758796195794,926,427.6809188253441S930.9,427.46783991034533,933,427.4414262372525S937.9,427.53563688996115,940,427.50482767139187S944.9,427.26880411674006,947,427.23603144679066S951.9,427.2942374108173,954,427.28634320506274S958.9,427.15676349402275,961,427.18340340842684S965.9,427.4510953599611,968,427.46394263442346S972.9,427.3030931421448,975,427.26905190484285S979.9,427.22042079631177,982,427.23700105241045S986.9,427.3784072586631,989,427.37958694550053S993.9,427.21686018900795,996,427.2448656313266S1000.9,427.5053825012743,1003,427.5662898942917S1007.9,427.62646469639634,1010,427.65091491810904S1014.9,427.7117011104239,1017,427.7292913723765S1021.9,427.87165641085323,1024,427.76818333112647S1028.9,427.1393078995173,1031,427.0394708408648S1035.9,427.0682465809814,1038,427.1026029401098S1042.9,427.2284200426752,1045,427.2685132350541S1049.9,427.39177165612267,1052,427.36989088930244S1056.9,427.14189620785237,1059,427.12264145625244S1063.9,427.19654425792413,1066,427.2415258786362S1070.9,427.0087478094617,1073,427.42251892766626Q1074.4,427.69836633980265,1080,430" style="stroke: rgb(43, 238, 17); stroke-width: 0.2em; fill: none;"></path></g><g class="chart"><path class="line" d="M9,65.45651325058779Q14.6,93.79553222266306,16,94.30863674326761C18.1,95.07829352417446,20.9,73.7773266244308,23,70.5875584566334S27.9,75.80529179178734,30,73.04351562461831S34.9,49.844672311508475,37,52.17571734217319S41.9,86.1083965215962,44,88.58381582904975S48.9,72.12223676491462,51,68.67851272519687S55.9,61.589518650940335,58,65.62565556426473S62.9,99.09140230402846,65,95.5860921473595S69.9,38.9037502315967,72,42.25692118647159S76.9,104.70421222236739,79,117.94056517985871S83.9,128.2576510840354,86,130.49927423641367S90.9,130.17097924029272,93,132.8847195290473S97.9,152.77917651670307,100,148.59087616144407S104.9,108.73599399044947,107,104.96271716065398S111.9,121.8722243943003,114,123.43569729614076S118.9,116.24599082482496,121,115.38586983959038S125.9,119.44558702291862,128,117.70155739457698S132.9,101.72867572291679,135,103.7590056506461S139.9,129.63472807886427,142,131.2370902461057S146.9,119.85177097714822,149,114.4414200989223S153.9,91.81893729971351,156,95.1680843912662S160.9,130.09231459768822,163,136.7690673759403S167.9,141.87826952205083,170,139.67976957961332S174.9,118.44395479082263,177,122.11240109302365S181.9,165.9718972213032,184,164.13607826095344S188.9,115.72510521912147,191,109.87360802402517S195.9,121.81185567107168,198,125.12609696031143S202.9,135.181483614354,205,131.96854995229012S209.9,109.34607253977919,212,103.7065392132189S216.9,97.3137920010543,219,94.37166110855487S223.9,82.36283155908451,226,84.09233326322277S230.9,105.35626122828991,233,105.90167246947655S237.9,86.7489045272941,240,87.72840820446704S244.9,104.74931773713091,247,112.43169698396281S251.9,136.5735760295452,254,138.94426985001306S258.9,130.12389411405547,261,128.23632245374864S265.9,131.80793747471853,268,126.36045878130092S272.9,92.66153805006799,275,91.91979783096468S279.9,116.06696930722178,282,121.41552398727886S286.9,128.20274177911605,289,127.57682903134518S293.9,120.7459089595443,296,117.24277233547305S300.9,109.05707889144765,303,104.22258487087021S307.9,82.94945103911282,310,85.0128121982901S314.9,116.58635202421456,317,117.97832593205217S321.9,91.64876612673999,324,94.29263825054083S328.9,126.10580263865516,331,135.6041400907245S335.9,159.3863412382916,338,157.61488793100318S342.9,125.0602634320757,345,123.79445137546827S349.9,152.2572970652393,352,149.17614088695362S356.9,106.45086247923145,359,103.25341018689711S363.9,124.51887066751333,366,127.85979227139136S370.9,128.5676797876188,373,125.52622087941728S377.9,115.99479294222317,380,107.58339955004789S384.9,76.14492309361316,387,69.45026493158204S391.9,62.19847676710937,394,62.95234513650706S398.9,75.9314159361323,401,74.4760540609S405.9,50.894833304875704,408,53.24993263495839S412.9,85.35246774025642,415,90.17671626145126S419.9,89.07268290250818,422,85.41158944292401S426.9,62.673459626762,429,65.76942653089017S433.9,103.76194409434387,436,106.05136880377849S440.9,82.49442320178557,443,81.03225792712097S447.9,93.92092377609524,450,96.30360030601453S454.9,97.33646191911512,457,96.91676812658291S461.9,102.3609366941484,464,93.50564168913314S468.9,49.8553298932795,471,37.881468093147795S475.9,12.97530011110379,478,13.67989635492177S482.9,42.47410745860981,485,42.57877638526766S489.9,13.484076419955478,492,14.377689199307436S496.9,39.73918128706249,499,48.536194914280706S503.9,70.65485177999673,506,73.02444671409549S510.9,63.285851762834454,513,64.33349447493913S517.9,80.17627931256213,520,80.00873146145999S524.9,68.18685264888366,527,63.21650880092483S531.9,49.7275116324488,534,46.87310580840115S538.9,45.3327256804057,541,44.18713664060715S545.9,44.7220195807721,548,39.235845543077495S552.9,11.571494321355631,555,7.612643055976451S559.9,12.44407473880467,562,12.843503773882967S566.9,12.202028855914213,569,10.275503289831768S573.9,-9.90957143556877,576,0S580.9,64.20429452610026,583,76.33931286029024S587.9,80.66133260391597,590,80.90012222793322S594.9,75.1700735234153,597,77.93124368707196S601.9,100.68696915188447,604,99.30792331897757S608.9,72.83501270947521,611,68.73760480102602S615.9,68.66963006037987,618,71.991870595983S622.9,90.65204656311761,625,90.8858750383802S629.9,79.44230132511517,632,73.55072709773363S636.9,53.60873519456691,639,51.608713522503315S643.9,59.455042306248316,646,60.21724928397632S650.9,57.82033032484168,653,56.690093374023355S657.9,47.024695567010724,660,52.682336278520864S664.9,87.41091892430902,667,94.40769811742426S671.9,97.61957868005108,674,99.32753089928919S678.9,102.76318835891996,681,105.79404624567829S685.9,123.49846848662725,688,119.53325014434469S692.9,86.53623769468373,695,79.3592572971279S699.9,68.70087021478021,702,71.68671416063913S706.9,97.68190546796187,709,99.26488360285406S713.9,88.3660073933055,716,82.23990172658701S720.9,61.0636961366227,723,58.424179158064135S727.9,64.74381541314656,730,64.6431218695299S734.9,58.49133242728239,737,57.752888867286416S741.9,54.29638488682988,744,59.72016480289009S748.9,84.32303206701252,751,93.91142164102118S755.9,117.04154146247843,758,123.64276196294777S762.9,138.97570123218836,765,137.91955831081674S769.9,125.65242313088159,772,116.60180915380361S776.9,82.20071888615114,779,77.58213179696358S783.9,83.29704118706788,786,85.81122855921993S790.9,94.6976667580735,793,94.3433809446439S797.9,84.36111602107925,800,83.44932313635597S804.9,89.23214532008073,807,88.26476171315535S811.9,80.23793545658593,814,77.00009909018675S818.9,65.46716275231199,821,66.67918593716078S825.9,77.25692607208126,828,85.08025365584535S832.9,112.16376801772147,835,118.83470316225471S839.9,130.46099636122293,842,129.55315461940035S846.9,113.43692483689892,849,112.7824248834375S853.9,127.93933225240265,856,125.18982159632414S860.9,95.7969382760838,863,94.4523538429141S867.9,113.6826094342126,870,116.22592537519293S874.9,111.17447401713746,877,111.40779344944964S881.9,116.85768538352097,884,117.78138825727419S888.9,120.47299729775672,891,117.5658126078044S895.9,100.15408467663589,898,98.40015699092541S902.9,107.09764598796859,905,105.87296136973453S909.9,87.16653252118633,912,90.23559286936495S916.9,118.00066187484397,919,126.33336369092532S923.9,148.2791721948176,926,145.78693830990727S930.9,109.91147112347852,933,109.7184711248565S937.9,141.92651817503184,940,144.5002716524272S944.9,134.80976105986161,947,126.8768276408255S951.9,91.96307456179527,954,91.61404885885311S958.9,119.12312312726121,961,124.54998962121114S965.9,129.88213372615306,968,127.79315881851926S972.9,115.56849505808052,975,110.6234902369859S979.9,95.57532683163073,982,94.82646001122185S986.9,106.87340044824842,989,105.63104476759342S993.9,82.54795620539456,996,86.5440888068552S1000.9,124.33480181398932,1003,132.27192877733108S1007.9,136.09074744441895,1010,139.45826856246694S1014.9,150.99492980193114,1017,154.72206956431762S1021.9,169.67892844047452,1024,164.30586697837688S1028.9,126.29790036538095,1031,118.90165981700008S1035.9,116.16133348082029,1038,114.99759665583774S1042.9,110.00364291103666,1045,111.1434143171164S1049.9,129.6728362730715,1052,122.59607269636925S1056.9,71.70275036025109,1059,63.96499047243471S1063.9,70.73518629894646,1066,71.01100677759341S1070.9,11.955444680053333,1073,65.80379366341433Q1074.4,101.70269298565498,1080,430" style="stroke: rgb(255, 0, 0); stroke-width: 0.2em; fill: none;"></path></g><g class="chart"><path class="line" d="M9,96.11032558580027Q14.6,87.18087729766151,16,87.33620273125624C18.1,87.56919088164832,20.9,96.92440107748989,23,97.66357992174756S27.9,92.6604364703499,30,92.26406169297398S34.9,89.31121127167786,37,95.02108140590812S41.9,127.97556318239599,44,130.32986258784234S48.9,117.03031289073135,51,110.71641077555047S55.9,88.33265565333316,58,88.23718181996978S62.9,108.18238419507762,65,110.07991855312792S69.9,97.32802096352493,72,100.88741087363849S76.9,130.35533628215376,79,133.80918462055163S83.9,127.51905400314959,86,123.91306646295762S90.9,107.98200980704722,93,109.76926768593847S97.9,135.46747417861314,100,135.8281189888993S104.9,117.34328542471044,107,112.1735664211794S111.9,98.84983314390111,114,101.36332563202564S118.9,126.70067992654548,121,128.9301830086762S125.9,114.9310844036681,128,116.22667951289718S132.9,135.0919755489014,135,137.5674837368701S139.9,138.06178329514833,142,132.73006743268851S146.9,108.82619963327865,149,102.02271132047134S153.9,79.25392041993196,156,87.37347868063986S160.9,149.22358692194942,163,156.15309972519074S167.9,134.22292880526672,170,133.57023070224875S174.9,149.55405545066802,177,151.80177903840425S181.9,152.5761222464735,184,148.5550546204902S188.9,129.13511184977074,191,124.99466153184909S195.9,116.34969014586302,198,120.95205250101252S202.9,154.22018014871543,205,155.67707723284576S209.9,134.16759395121431,212,130.66469972854802S216.9,135.6959455828263,219,132.32444908173713S223.9,111.72174366909539,226,108.18805638795348S230.9,110.49232683676689,233,108.76653387412439S237.9,94.5507364931369,240,96.68276997033682S244.9,118.40553955483578,247,122.98009038879057S251.9,125.44709836749229,254,127.1797755300354S258.9,137.35048061246002,261,134.53127147241128S265.9,115.7917763788788,268,108.38504792971037S272.9,87.77090386410387,275,85.15308181128843S279.9,87.0434168476117,282,90.93290091094073S286.9,108.89371111790643,289,111.08297556681529S293.9,99.62913480737605,296,105.52799723699978S300.9,148.98863262682823,303,150.40872509764017S307.9,122.43736710984992,310,114.99528037574596S314.9,101.94150954316169,317,100.79481353694719S321.9,102.26448517511841,324,107.350640334316S328.9,130.17042441041028,331,134.7025145982645S335.9,138.02683439925227,338,137.56457492001064S342.9,132.7722156503116,345,131.62078473665375S349.9,135.47189127088114,352,129.8883688289582S356.9,94.77476117824372,359,94.3973017905008S363.9,124.03013826150213,366,127.37197291067213S370.9,119.80256349194318,373,116.67619945163415S377.9,103.9870622791219,380,106.52954597527857S384.9,134.419422077469,387,133.62609075934526S391.9,103.62661138995973,394,101.24067052112044S398.9,116.04034824626028,401,117.71981830041663S405.9,113.42157813461658,408,112.43713754882947S412.9,108.36168582097095,415,111.15688106183589S419.9,131.7994615055921,422,131.0717724879291S426.9,104.4388230841802,429,106.3056209440827S433.9,142.74931742395077,436,143.51709155394582S440.9,115.10314630760024,443,111.4241151440497S447.9,117.60036827475464,450,118.99021713027551S454.9,122.04227705992022,457,120.68977418085548S461.9,105.64660963114022,464,109.97353126984387S468.9,140.40482719535814,471,149.53591843887986S475.9,170.5390090254749,478,170.84747289332194S482.9,156.41908140014561,485,151.5923442245266S489.9,135.5302399824018,492,138.66922505586194S496.9,168.44868475002025,499,172.5189113809276S503.9,175.2969688424625,506,165.80406926191088S510.9,114.77604446506143,513,109.23291417725017S517.9,125.45755664144147,520,128.8498673431691S524.9,132.32793427527056,527,131.84831885543446S531.9,132.4327701895629,534,125.65243121092841S538.9,90.46713738472312,541,86.64605899787126S545.9,97.92814489515794,548,100.17857529858277S552.9,101.88510812292742,555,101.64892835403681S559.9,99.96771300976485,562,98.6040435059787S566.9,97.51769467620122,569,92.55779832879578S573.9,61.26493508966411,576,65.53806785660912S580.9,113.51672607275773,583,121.0453501084292S587.9,116.50556502264229,590,115.72889476108554S594.9,113.93565764753883,597,115.86754836471754S601.9,131.1855476273663,604,128.60816620894352S608.9,102.0376351669695,611,98.68500557523234S615.9,104.89574973251287,618,106.25730226402912S622.9,110.0980771117077,625,107.76202245200732S629.9,90.02809457337789,632,90.6836045326933S636.9,108.38137150840194,639,112.13208884744334S643.9,113.4485250908003,646,115.68838679296927S650.9,129.09790862080865,653,127.06450019523646S657.9,103.34025722359317,660,102.13233062248804S664.9,114.60349775831939,667,119.01165618786897S671.9,127.94637805323988,674,131.52005348615188S678.9,140.43367026919833,681,142.83615907394895S685.9,151.398843263001,688,147.53664551782262S692.9,120.42721305905935,695,117.08817410609312S699.9,122.88486165018107,702,125.27638583138106S706.9,133.33584201040586,709,133.03166864742647S713.9,126.57353500295076,716,123.24856341151852S720.9,113.15691889399315,723,110.8651913712115S727.9,106.49349280631553,730,107.97037992630749S734.9,116.17945971921273,737,120.71110550449119S741.9,131.42999597751466,744,138.18135182816383S748.9,159.82709971291408,751,165.72014450881898S755.9,169.66425238207924,758,177.46831713419655S762.9,218.14460339935712,765,217.74724285626775S769.9,187.01536649526528,772,174.81924684693396S776.9,140.5116777346605,779,136.439778534059S783.9,147.93756666821585,786,147.67325217625725S790.9,137.55787925453615,793,134.67768192100172S797.9,125.86948281561946,800,128.471936619361S804.9,153.04882922626848,807,152.02737394594536S811.9,125.99145920259082,814,121.66223475054014S818.9,120.34277387631916,821,123.1658775989408S825.9,133.24645245230676,828,140.4829262346844S832.9,166.64380428898906,835,171.40903614812515S839.9,173.53916273427282,842,172.25113862892505S846.9,164.11091160842167,849,162.82220877914003S853.9,165.4656849806461,856,163.65978643371412S860.9,150.80962200789287,863,150.78288513292676S867.9,162.51905350206138,870,163.48154060060676S874.9,157.2678068259985,877,157.19946578989598S881.9,161.70938702259295,884,163.02593369325663S888.9,168.61901483058148,891,165.97644359432053S895.9,146.6866838448045,898,145.40879211818367S902.9,158.3999372011244,905,157.45716541684837S909.9,137.28826425185594,912,139.1236468896768S916.9,162.50561369083135,919,169.6930496689874S923.9,189.70600323677905,926,187.03988674405053S930.9,152.66098697834684,933,151.91893971746393S937.9,180.3072792953999,940,182.09290500483112S944.9,168.60211137260953,947,163.8231111136722S951.9,150.60806793302507,954,150.23290327858237S958.9,158.2663093866217,961,161.32201341738752S965.9,170.54226528434813,968,170.6042634836878S972.9,166.68768432998314,975,161.7353347463185S979.9,138.82098449545492,982,137.58859959259024S986.9,154.00380188126042,989,153.51943539388728S993.9,132.0715920961859,996,134.35948967676933S1000.9,162.48539741365843,1003,168.77208593111013S1007.9,172.189062322466,1010,176.2707464597807S1014.9,192.40210747664898,1017,195.98331351320812S1021.9,206.1264817960303,1024,200.145453370175S1028.9,162.07194411062923,1031,156.10979067417279S1035.9,162.2502599708091,1038,160.3977637937987S1042.9,145.1226453396858,1045,143.75981616077013S1049.9,153.97037742086658,1052,151.31223593436096S1056.9,124.92217812507087,1059,126.03887291739926S1063.9,153.94191949592536,1066,158.7568678832169S1070.9,117.4520590151588,1073,158.13852883267626Q1074.4,185.26284204435456,1080,430" style="stroke: rgb(29, 0, 255); stroke-width: 0.2em; fill: none;"></path></g><g class="legend" transform="translate(25, 0)"><rect x="1080" width="10" height="10" style="fill: rgb(70, 130, 180); stroke: rgb(128, 128, 128);"></rect><text x="1078" y="6" dy=".5em" style="text-anchor: end;">TB</text></g><g class="legend" transform="translate(25, 30)"><rect x="1080" width="10" height="10" style="fill: rgb(0, 128, 0); stroke: rgb(128, 128, 128);"></rect><text x="1078" y="6" dy=".5em" style="text-anchor: end;">FB</text></g><g class="legend" transform="translate(25, 60)"><rect x="1080" width="10" height="10" style="fill: rgb(29, 0, 255); stroke: rgb(128, 128, 128);"></rect><text x="1078" y="6" dy=".5em" style="text-anchor: end;">MB</text></g><g class="legend" transform="translate(25, 90)"><rect x="1080" width="10" height="10" style="fill: rgb(131, 0, 225); stroke: rgb(128, 128, 128);"></rect><text x="1078" y="6" dy=".5em" style="text-anchor: end;">LR</text></g><g class="legend" transform="translate(25, 120)"><rect x="1080" width="10" height="10" style="fill: rgb(255, 0, 0); stroke: rgb(128, 128, 128);"></rect><text x="1078" y="6" dy=".5em" style="text-anchor: end;">HR</text></g><g class="legend" transform="translate(25, 150)"><rect x="1080" width="10" height="10" style="fill: rgb(43, 238, 17); stroke: rgb(128, 128, 128);"></rect><text x="1078" y="6" dy=".5em" style="text-anchor: end;">DR</text></g><g class="legend" transform="translate(25, 180)"><rect x="1080" width="10" height="10" style="fill: rgb(0, 28, 156); stroke: rgb(128, 128, 128);"></rect><text x="1078" y="6" dy=".5em" style="text-anchor: end;">CR</text></g></g></svg>
